<svg width="1024" height="1024" viewBox="0 0 1024 1024" fill="none" xmlns="http://www.w3.org/2000/svg">
<circle cx="512" cy="512" r="512" fill="#1F3977"/>
<circle cx="512" cy="512.001" r="435.392" fill="white"/>
<circle cx="512" cy="511.999" r="396.587" fill="url(#paint0_radial_136_138)" stroke="black"/>
<path d="M899.098 600.1C858.554 776.364 700.682 907.811 512.109 907.811C340.81 907.81 194.845 799.342 139.149 647.342C133.533 632.015 128.835 616.245 125.121 600.1H899.098Z" fill="#FFBC2F"/>
<path d="M221.482 746V636.909H265.161C273.186 636.909 279.88 638.099 285.242 640.478C290.604 642.857 294.635 646.16 297.334 650.386C300.033 654.576 301.382 659.406 301.382 664.874C301.382 669.136 300.53 672.882 298.825 676.114C297.121 679.31 294.777 681.937 291.794 683.997C288.847 686.021 285.473 687.46 281.673 688.312V689.377C285.828 689.555 289.717 690.727 293.339 692.893C296.996 695.059 299.962 698.095 302.234 702.001C304.507 705.872 305.643 710.489 305.643 715.851C305.643 721.639 304.205 726.806 301.329 731.352C298.488 735.862 294.28 739.43 288.705 742.058C283.129 744.686 276.258 746 268.09 746H221.482ZM244.546 727.143H263.349C269.777 727.143 274.464 725.918 277.412 723.468C280.359 720.982 281.833 717.68 281.833 713.56C281.833 710.542 281.105 707.879 279.649 705.57C278.193 703.262 276.116 701.451 273.417 700.137C270.754 698.823 267.575 698.166 263.882 698.166H244.546V727.143ZM244.546 682.559H261.645C264.805 682.559 267.611 682.009 270.061 680.908C272.547 679.771 274.5 678.173 275.92 676.114C277.376 674.054 278.104 671.586 278.104 668.71C278.104 664.768 276.702 661.589 273.896 659.175C271.126 656.76 267.185 655.553 262.071 655.553H244.546V682.559ZM320.225 746V664.182H342.917V746H320.225ZM331.624 653.635C328.251 653.635 325.357 652.516 322.942 650.279C320.563 648.006 319.373 645.29 319.373 642.129C319.373 639.004 320.563 636.323 322.942 634.086C325.357 631.813 328.251 630.677 331.624 630.677C334.998 630.677 337.874 631.813 340.254 634.086C342.669 636.323 343.876 639.004 343.876 642.129C343.876 645.29 342.669 648.006 340.254 650.279C337.874 652.516 334.998 653.635 331.624 653.635ZM383.786 636.909V746H361.094V636.909H383.786Z" fill="#FE1926"/>
<path d="M402.39 636.909H430.834L460.877 710.205H462.155L492.198 636.909H520.643V746H498.27V674.995H497.365L469.133 745.467H453.899L425.667 674.729H424.762V746H402.39V636.909ZM576.506 747.598C568.09 747.598 560.846 745.893 554.773 742.484C548.737 739.04 544.085 734.175 540.817 727.889C537.55 721.568 535.917 714.093 535.917 705.464C535.917 697.048 537.55 689.661 540.817 683.305C544.085 676.948 548.683 671.994 554.614 668.443C560.58 664.892 567.575 663.116 575.601 663.116C580.999 663.116 586.023 663.987 590.675 665.727C595.363 667.431 599.447 670.006 602.927 673.45C606.442 676.895 609.177 681.227 611.13 686.447C613.083 691.632 614.06 697.705 614.06 704.665V710.897H544.972V696.835H592.7C592.7 693.567 591.989 690.673 590.569 688.152C589.148 685.631 587.178 683.66 584.656 682.239C582.17 680.783 579.276 680.055 575.974 680.055C572.529 680.055 569.475 680.854 566.812 682.452C564.184 684.015 562.124 686.128 560.633 688.791C559.141 691.419 558.378 694.349 558.342 697.58V710.95C558.342 714.999 559.088 718.496 560.58 721.444C562.107 724.391 564.255 726.664 567.025 728.262C569.795 729.86 573.08 730.659 576.879 730.659C579.401 730.659 581.709 730.304 583.804 729.594C585.899 728.884 587.692 727.818 589.184 726.398C590.675 724.977 591.812 723.237 592.593 721.178L613.58 722.562C612.515 727.605 610.331 732.009 607.028 735.773C603.761 739.501 599.536 742.413 594.351 744.509C589.202 746.568 583.254 747.598 576.506 747.598ZM651.56 698.699V746H628.868V664.182H650.494V678.617H651.453C653.264 673.859 656.3 670.094 660.562 667.325C664.823 664.519 669.99 663.116 676.062 663.116C681.744 663.116 686.698 664.359 690.924 666.845C695.15 669.331 698.435 672.882 700.778 677.499C703.122 682.08 704.294 687.548 704.294 693.905V746H681.602V697.953C681.638 692.946 680.359 689.04 677.767 686.234C675.175 683.393 671.606 681.973 667.06 681.973C664.006 681.973 661.308 682.63 658.964 683.944C656.656 685.258 654.844 687.175 653.531 689.697C652.252 692.183 651.595 695.183 651.56 698.699ZM774.646 711.163V664.182H797.338V746H775.552V731.138H774.7C772.853 735.933 769.781 739.786 765.485 742.697C761.223 745.609 756.021 747.065 749.877 747.065C744.409 747.065 739.597 745.822 735.442 743.337C731.287 740.851 728.038 737.317 725.694 732.737C723.386 728.156 722.214 722.669 722.178 716.277V664.182H744.87V712.229C744.906 717.058 746.202 720.876 748.759 723.681C751.316 726.487 754.742 727.889 759.039 727.889C761.774 727.889 764.33 727.268 766.71 726.025C769.089 724.746 771.007 722.864 772.463 720.379C773.954 717.893 774.682 714.821 774.646 711.163Z" fill="#FEFEFE"/>
<path d="M337.998 546.833C335.266 557.85 335.013 563.905 337.998 574.922C349.165 578.014 354.945 577.564 364.811 574.922C445.483 483.504 482.75 440.957 583.145 337.436C600.762 333.47 610.24 332.682 626.557 334.882L719.764 231.461L717.21 227.631L632.941 301.685L708.273 219.97L704.442 216.139L621.45 290.194L696.781 207.202L694.228 204.648L608.682 278.703L682.736 196.987L680.183 194.434L578.038 285.087C580.952 302.417 579.619 312.574 574.208 331.052C484.092 418.472 431.737 464.775 337.998 546.833Z" fill="#2C55B5" stroke="black" stroke-width="0.5"/>
<path d="M655.928 567.262C667.42 573.576 674.798 575.693 690.402 577.476C690.017 562.236 687.976 553.72 680.188 539.172C595.939 469.986 550.24 429.493 473.345 352.758C464.463 333.512 463.86 333.605 465.684 320.837C467.232 310 463.827 285.877 459.299 273.595C454.214 259.799 450.028 251.551 442.701 241.676C422.511 214.463 403.674 197.441 369.923 194.434C351.797 192.819 335.625 196.866 323.958 202.095C304.224 222.182 305.619 239.121 307.359 258.274C311.186 300.408 331.931 328.391 369.923 345.097C390.193 354.01 402.376 356.389 426.103 352.758C445.262 353.582 453.723 354.808 465.684 357.865C540.848 438.065 582.358 484.109 655.928 567.262Z" fill="#335DC2" stroke="#1C3470" stroke-width="0.5"/>
<defs>
<radialGradient id="paint0_radial_136_138" cx="0" cy="0" r="1" gradientUnits="userSpaceOnUse" gradientTransform="translate(512 511.999) rotate(90) scale(397.087)">
<stop stop-color="#FFB630"/>
<stop offset="1" stop-color="#FC6738"/>
</radialGradient>
</defs>
</svg>
