<svg width="401" height="401" viewBox="0 0 401 401" fill="none" xmlns="http://www.w3.org/2000/svg">
<circle cx="200.5" cy="200.5" r="200.5" fill="#1F3977"/>
<circle cx="200.5" cy="200.5" r="170.5" fill="white"/>
<circle cx="200.5" cy="200.5" r="155" fill="url(#paint0_radial_135_111)" stroke="black"/>
<path d="M352.088 235C336.211 304.026 274.388 355.5 200.543 355.5C133.462 355.5 76.3015 313.024 54.4912 253.5C52.292 247.498 50.4543 241.322 49 235H352.088Z" fill="#FFBC2F"/>
<path d="M86.7926 293V249.364H104.264C107.474 249.364 110.152 249.839 112.297 250.791C114.442 251.743 116.054 253.064 117.134 254.754C118.213 256.43 118.753 258.362 118.753 260.55C118.753 262.254 118.412 263.753 117.73 265.045C117.048 266.324 116.111 267.375 114.918 268.199C113.739 269.009 112.389 269.584 110.869 269.925V270.351C112.531 270.422 114.087 270.891 115.536 271.757C116.999 272.624 118.185 273.838 119.094 275.401C120.003 276.949 120.457 278.795 120.457 280.94C120.457 283.256 119.882 285.322 118.732 287.141C117.595 288.945 115.912 290.372 113.682 291.423C111.452 292.474 108.703 293 105.436 293H86.7926ZM96.0185 285.457H103.54C106.111 285.457 107.986 284.967 109.165 283.987C110.344 282.993 110.933 281.672 110.933 280.024C110.933 278.817 110.642 277.751 110.06 276.828C109.477 275.905 108.646 275.18 107.567 274.655C106.501 274.129 105.23 273.866 103.753 273.866H96.0185V285.457ZM96.0185 267.624H102.858C104.122 267.624 105.244 267.403 106.224 266.963C107.219 266.509 108 265.869 108.568 265.045C109.151 264.222 109.442 263.234 109.442 262.084C109.442 260.507 108.881 259.236 107.759 258.27C106.651 257.304 105.074 256.821 103.028 256.821H96.0185V267.624ZM126.29 293V260.273H135.367V293H126.29ZM130.85 256.054C129.5 256.054 128.343 255.607 127.377 254.712C126.425 253.803 125.949 252.716 125.949 251.452C125.949 250.202 126.425 249.129 127.377 248.234C128.343 247.325 129.5 246.871 130.85 246.871C132.199 246.871 133.35 247.325 134.301 248.234C135.267 249.129 135.75 250.202 135.75 251.452C135.75 252.716 135.267 253.803 134.301 254.712C133.35 255.607 132.199 256.054 130.85 256.054ZM151.714 249.364V293H142.638V249.364H151.714Z" fill="#FE1926"/>
<path d="M159.156 249.364H170.534L182.551 278.682H183.062L195.079 249.364H206.457V293H197.508V264.598H197.146L185.853 292.787H179.76L168.467 264.491H168.105V293H159.156V249.364ZM228.803 293.639C225.436 293.639 222.538 292.957 220.109 291.594C217.695 290.216 215.834 288.27 214.527 285.756C213.22 283.227 212.567 280.237 212.567 276.786C212.567 273.419 213.22 270.464 214.527 267.922C215.834 265.379 217.673 263.398 220.045 261.977C222.432 260.557 225.23 259.847 228.44 259.847C230.599 259.847 232.609 260.195 234.47 260.891C236.345 261.572 237.979 262.602 239.371 263.98C240.777 265.358 241.871 267.091 242.652 269.179C243.433 271.253 243.824 273.682 243.824 276.466V278.959H216.189V273.334H235.28C235.28 272.027 234.996 270.869 234.428 269.861C233.859 268.852 233.071 268.064 232.062 267.496C231.068 266.913 229.911 266.622 228.589 266.622C227.212 266.622 225.99 266.942 224.925 267.581C223.874 268.206 223.05 269.051 222.453 270.116C221.857 271.168 221.551 272.339 221.537 273.632V278.98C221.537 280.599 221.835 281.999 222.432 283.178C223.043 284.357 223.902 285.266 225.01 285.905C226.118 286.544 227.432 286.864 228.952 286.864C229.96 286.864 230.884 286.722 231.722 286.438C232.56 286.153 233.277 285.727 233.874 285.159C234.47 284.591 234.925 283.895 235.237 283.071L243.632 283.625C243.206 285.642 242.332 287.403 241.011 288.909C239.705 290.401 238.014 291.565 235.94 292.403C233.881 293.227 231.501 293.639 228.803 293.639ZM258.824 274.08V293H249.747V260.273H258.398V266.047H258.781C259.506 264.143 260.72 262.638 262.425 261.53C264.129 260.408 266.196 259.847 268.625 259.847C270.898 259.847 272.879 260.344 274.57 261.338C276.26 262.332 277.574 263.753 278.511 265.599C279.449 267.432 279.918 269.619 279.918 272.162V293H270.841V273.781C270.855 271.778 270.344 270.216 269.307 269.094C268.27 267.957 266.842 267.389 265.024 267.389C263.803 267.389 262.723 267.652 261.786 268.178C260.862 268.703 260.138 269.47 259.612 270.479C259.101 271.473 258.838 272.673 258.824 274.08ZM308.059 279.065V260.273H317.135V293H308.421V287.055H308.08C307.341 288.973 306.113 290.514 304.394 291.679C302.689 292.844 300.608 293.426 298.151 293.426C295.963 293.426 294.039 292.929 292.377 291.935C290.715 290.94 289.415 289.527 288.478 287.695C287.554 285.862 287.086 283.668 287.071 281.111V260.273H296.148V279.491C296.162 281.423 296.681 282.95 297.703 284.072C298.726 285.195 300.097 285.756 301.816 285.756C302.909 285.756 303.932 285.507 304.884 285.01C305.836 284.499 306.603 283.746 307.185 282.751C307.782 281.757 308.073 280.528 308.059 279.065Z" fill="#FEFEFE"/>
<path d="M132.361 214.141C131.291 218.455 131.191 220.826 132.361 225.141C136.733 226.351 138.997 226.175 142.861 225.141C174.452 189.341 189.046 172.68 228.361 132.141C235.259 130.587 238.971 130.279 245.361 131.141L281.861 90.6406L280.861 89.1406L247.861 118.141L277.361 86.1406L275.861 84.6406L243.361 113.641L272.861 81.1406L271.861 80.1406L238.361 109.141L267.361 77.1406L266.361 76.1406L226.361 111.641C227.502 118.427 226.98 122.405 224.861 129.641C189.571 163.875 169.069 182.007 132.361 214.141Z" fill="#2C55B5" stroke="black" stroke-width="0.5"/>
<path d="M256.863 222.141C261.363 224.614 264.252 225.443 270.363 226.141C270.212 220.173 269.413 216.838 266.363 211.141C233.37 184.048 215.475 168.19 185.362 138.141C181.884 130.604 181.648 130.641 182.362 125.641C182.969 121.397 181.635 111.95 179.862 107.141C177.871 101.738 176.232 98.5081 173.362 94.6409C165.456 83.9844 158.079 77.3184 144.862 76.1409C137.764 75.5084 131.431 77.0933 126.862 79.1409C119.134 87.007 119.681 93.6404 120.362 101.141C121.861 117.64 129.985 128.599 144.862 135.141C152.8 138.631 157.571 139.563 166.862 138.141C174.365 138.463 177.679 138.944 182.362 140.141C211.797 171.547 228.052 189.578 256.863 222.141Z" fill="#335DC2" stroke="#1C3470" stroke-width="0.5"/>
<defs>
<radialGradient id="paint0_radial_135_111" cx="0" cy="0" r="1" gradientUnits="userSpaceOnUse" gradientTransform="translate(200.5 200.5) rotate(90) scale(155.5)">
<stop stop-color="#FFB630"/>
<stop offset="1" stop-color="#FC6738"/>
</radialGradient>
</defs>
</svg>
